<svg id="visual" viewBox="0 0 960 300" width="960" height="300" xmlns="http://www.w3.org/2000/svg" xmlns:xlink="http://www.w3.org/1999/xlink" version="1.1"><rect x="0" y="0" width="960" height="300" fill="#282b30"></rect><path d="M0 206L17.8 204C35.7 202 71.3 198 106.8 196.2C142.3 194.3 177.7 194.7 213.2 195.7C248.7 196.7 284.3 198.3 320 196.7C355.7 195 391.3 190 426.8 193.2C462.3 196.3 497.7 207.7 533.2 213.3C568.7 219 604.3 219 640 214.5C675.7 210 711.3 201 746.8 197.2C782.3 193.3 817.7 194.7 853.2 196.5C888.7 198.3 924.3 200.7 942.2 201.8L960 203L960 301L942.2 301C924.3 301 888.7 301 853.2 301C817.7 301 782.3 301 746.8 301C711.3 301 675.7 301 640 301C604.3 301 568.7 301 533.2 301C497.7 301 462.3 301 426.8 301C391.3 301 355.7 301 320 301C284.3 301 248.7 301 213.2 301C177.7 301 142.3 301 106.8 301C71.3 301 35.7 301 17.8 301L0 301Z" fill="#faca69"></path><path d="M0 206L17.8 206.2C35.7 206.3 71.3 206.7 106.8 208C142.3 209.3 177.7 211.7 213.2 211.7C248.7 211.7 284.3 209.3 320 211.3C355.7 213.3 391.3 219.7 426.8 217.2C462.3 214.7 497.7 203.3 533.2 201.5C568.7 199.7 604.3 207.3 640 212C675.7 216.7 711.3 218.3 746.8 216.8C782.3 215.3 817.7 210.7 853.2 209.7C888.7 208.7 924.3 211.3 942.2 212.7L960 214L960 301L942.2 301C924.3 301 888.7 301 853.2 301C817.7 301 782.3 301 746.8 301C711.3 301 675.7 301 640 301C604.3 301 568.7 301 533.2 301C497.7 301 462.3 301 426.8 301C391.3 301 355.7 301 320 301C284.3 301 248.7 301 213.2 301C177.7 301 142.3 301 106.8 301C71.3 301 35.7 301 17.8 301L0 301Z" fill="#ffb56e"></path><path d="M0 225L17.8 223.2C35.7 221.3 71.3 217.7 106.8 217.8C142.3 218 177.7 222 213.2 226.5C248.7 231 284.3 236 320 235.8C355.7 235.7 391.3 230.3 426.8 227.5C462.3 224.7 497.7 224.3 533.2 223C568.7 221.7 604.3 219.3 640 219.8C675.7 220.3 711.3 223.7 746.8 226.8C782.3 230 817.7 233 853.2 232.7C888.7 232.3 924.3 228.7 942.2 226.8L960 225L960 301L942.2 301C924.3 301 888.7 301 853.2 301C817.7 301 782.3 301 746.8 301C711.3 301 675.7 301 640 301C604.3 301 568.7 301 533.2 301C497.7 301 462.3 301 426.8 301C391.3 301 355.7 301 320 301C284.3 301 248.7 301 213.2 301C177.7 301 142.3 301 106.8 301C71.3 301 35.7 301 17.8 301L0 301Z" fill="#ffa279"></path><path d="M0 250L17.8 246.8C35.7 243.7 71.3 237.3 106.8 238C142.3 238.7 177.7 246.3 213.2 249.7C248.7 253 284.3 252 320 252.7C355.7 253.3 391.3 255.7 426.8 256.5C462.3 257.3 497.7 256.7 533.2 252.8C568.7 249 604.3 242 640 238.3C675.7 234.7 711.3 234.3 746.8 238.5C782.3 242.7 817.7 251.3 853.2 254.8C888.7 258.3 924.3 256.7 942.2 255.8L960 255L960 301L942.2 301C924.3 301 888.7 301 853.2 301C817.7 301 782.3 301 746.8 301C711.3 301 675.7 301 640 301C604.3 301 568.7 301 533.2 301C497.7 301 462.3 301 426.8 301C391.3 301 355.7 301 320 301C284.3 301 248.7 301 213.2 301C177.7 301 142.3 301 106.8 301C71.3 301 35.7 301 17.8 301L0 301Z" fill="#ff9386"></path><path d="M0 251L17.8 252C35.7 253 71.3 255 106.8 255.3C142.3 255.7 177.7 254.3 213.2 254C248.7 253.7 284.3 254.3 320 257.5C355.7 260.7 391.3 266.3 426.8 268C462.3 269.7 497.7 267.3 533.2 264.2C568.7 261 604.3 257 640 258.3C675.7 259.7 711.3 266.3 746.8 266.7C782.3 267 817.7 261 853.2 259.7C888.7 258.3 924.3 261.7 942.2 263.3L960 265L960 301L942.2 301C924.3 301 888.7 301 853.2 301C817.7 301 782.3 301 746.8 301C711.3 301 675.7 301 640 301C604.3 301 568.7 301 533.2 301C497.7 301 462.3 301 426.8 301C391.3 301 355.7 301 320 301C284.3 301 248.7 301 213.2 301C177.7 301 142.3 301 106.8 301C71.3 301 35.7 301 17.8 301L0 301Z" fill="#ff859a"></path><path d="M0 284L17.8 283.8C35.7 283.7 71.3 283.3 106.8 283.2C142.3 283 177.7 283 213.2 281.2C248.7 279.3 284.3 275.7 320 275C355.7 274.3 391.3 276.7 426.8 277.5C462.3 278.3 497.7 277.7 533.2 277.7C568.7 277.7 604.3 278.3 640 279.5C675.7 280.7 711.3 282.3 746.8 280.8C782.3 279.3 817.7 274.7 853.2 274.5C888.7 274.3 924.3 278.7 942.2 280.8L960 283L960 301L942.2 301C924.3 301 888.7 301 853.2 301C817.7 301 782.3 301 746.8 301C711.3 301 675.7 301 640 301C604.3 301 568.7 301 533.2 301C497.7 301 462.3 301 426.8 301C391.3 301 355.7 301 320 301C284.3 301 248.7 301 213.2 301C177.7 301 142.3 301 106.8 301C71.3 301 35.7 301 17.8 301L0 301Z" fill="#fd7db3"></path></svg>
