<svg id="visual" viewBox="0 0 960 300" width="960" height="300" xmlns="http://www.w3.org/2000/svg" xmlns:xlink="http://www.w3.org/1999/xlink" version="1.1"><rect x="0" y="0" width="960" height="300" fill="#282b30"></rect><defs><linearGradient id="grad1_0" x1="68.8%" y1="0%" x2="100%" y2="100%"><stop offset="-14.000000000000007%" stop-color="#282b30" stop-opacity="1"></stop><stop offset="114.00000000000001%" stop-color="#282b30" stop-opacity="1"></stop></linearGradient></defs><defs><linearGradient id="grad2_0" x1="0%" y1="0%" x2="31.3%" y2="100%"><stop offset="-14.000000000000007%" stop-color="#282b30" stop-opacity="1"></stop><stop offset="114.00000000000001%" stop-color="#282b30" stop-opacity="1"></stop></linearGradient></defs><g transform="translate(960, 0)"><path d="M0 255C-14.2 252.7 -28.4 250.3 -43.8 248.2C-59.1 246 -75.7 244 -83.1 228.3C-90.5 212.7 -88.8 183.4 -103.5 179.3C-118.2 175.1 -149.2 196.1 -162.6 193.8C-176.1 191.5 -172 165.8 -182.3 153C-192.6 140.1 -217.4 140.1 -220.8 127.5C-224.3 114.9 -206.5 89.8 -201.1 73.2C-195.7 56.6 -202.7 48.5 -213.7 37.7C-224.8 26.9 -239.9 13.4 -255 0L0 0Z" fill="#ff90f8"></path></g><g transform="translate(0, 300)"><path d="M0 -255C13.7 -249.1 27.4 -243.2 42.7 -242.3C58 -241.4 74.9 -245.5 86.9 -238.7C98.8 -231.9 105.9 -214.2 118.5 -205.2C131.1 -196.3 149.2 -196.2 153.6 -183.1C158 -170 148.6 -143.9 160.9 -135C173.1 -126.1 206.9 -134.3 220.8 -127.5C234.7 -120.7 228.7 -98.9 224.6 -81.7C220.4 -64.6 218.2 -52.3 223.6 -39.4C228.9 -26.6 242 -13.3 255 0L0 0Z" fill="#ff90f8"></path></g></svg>