<svg id="visual" viewBox="0 0 960 300" width="960" height="300" xmlns="http://www.w3.org/2000/svg" xmlns:xlink="http://www.w3.org/1999/xlink" version="1.1"><rect x="0" y="0" width="960" height="300" fill="#282b30"></rect><defs><linearGradient id="grad1_0" x1="68.8%" y1="0%" x2="100%" y2="100%"><stop offset="-14.000000000000007%" stop-color="#282b30" stop-opacity="1"></stop><stop offset="114.00000000000001%" stop-color="#282b30" stop-opacity="1"></stop></linearGradient></defs><defs><linearGradient id="grad2_0" x1="0%" y1="0%" x2="31.3%" y2="100%"><stop offset="-14.000000000000007%" stop-color="#282b30" stop-opacity="1"></stop><stop offset="114.00000000000001%" stop-color="#282b30" stop-opacity="1"></stop></linearGradient></defs><g transform="translate(960, 0)"><path d="M0 255C-11.4 231.3 -22.7 207.6 -35.8 202.9C-48.8 198.2 -63.6 212.5 -79.7 218.9C-95.8 225.4 -113.4 224.1 -123 213C-132.6 201.9 -134.4 181.1 -141.4 168.5C-148.4 156 -160.8 151.8 -171.6 144C-182.4 136.2 -191.7 124.8 -193.1 111.5C-194.6 98.2 -188.1 83.2 -199.2 72.5C-210.3 61.9 -238.9 55.6 -251.1 44.3C-263.3 32.9 -259.2 16.5 -255 0L0 0Z" fill="#ff90f8"></path></g><g transform="translate(0, 300)"><path d="M0 -255C13.2 -241.6 26.5 -228.2 38.9 -220.6C51.3 -212.9 62.9 -211 77 -211.4C91 -211.8 107.4 -214.6 123 -213C138.6 -211.5 153.2 -205.6 163.9 -195.3C174.6 -185.1 181.2 -170.4 184.6 -154.9C188 -139.4 188.1 -123 187.9 -108.5C187.8 -94 187.5 -81.2 193.6 -70.5C199.7 -59.7 212.2 -50.8 223.6 -39.4C234.9 -28 244.9 -14 255 0L0 0Z" fill="#ff90f8"></path></g></svg>